HIERARCHY
ROOT Hips
{
	OFFSET 7.578175 104.101242 -2.137992
	CHANNELS 6 Xposition Yposition Zposition Xrotation Yrotation Zrotation
	JOINT Chest
	{
		OFFSET 0.322337 13.607643 0.939305
		CHANNELS 3 Xrotation Yrotation Zrotation
		JOINT Chest2
		{
			OFFSET -1.221322 21.124474 3.366246
			CHANNELS 3 Xrotation Yrotation Zrotation
			JOINT Chest3
			{
				OFFSET 0.589282 14.909897 -0.409469
				CHANNELS 3 Xrotation Yrotation Zrotation
				JOINT Neck
				{
					OFFSET -0.315098 17.225800 1.337318
					CHANNELS 3 Xrotation Yrotation Zrotation
					JOINT Head
					{
						OFFSET -1.981926 10.053925 2.195028
						CHANNELS 3 Xrotation Yrotation Zrotation
						End Site
						{
							OFFSET -1.975057 10.070480 2.124173
						}
					}
				}
				JOINT LeftCollar
				{
					OFFSET 4.379498 13.133087 3.185344
					CHANNELS 3 Xrotation Yrotation Zrotation
					JOINT LeftUpArm
					{
						OFFSET 14.965987 4.165588 -8.195518
						CHANNELS 3 Xrotation Yrotation Zrotation
						JOINT LeftLowArm
						{
							OFFSET 32.481033 2.947433 8.719110
							CHANNELS 3 Xrotation Yrotation Zrotation
							JOINT LeftHand
							{
								OFFSET 26.821262 3.028976 13.129811
								CHANNELS 3 Xrotation Yrotation Zrotation
								End Site
								{
									OFFSET 5.861946 0.661957 2.869600
								}
							}
						}
					}
				}
				JOINT RightCollar
				{
					OFFSET -3.923173 12.876083 4.541326
					CHANNELS 3 Xrotation Yrotation Zrotation
					JOINT RightUpArm
					{
						OFFSET -16.818087 4.729340 1.811504
						CHANNELS 3 Xrotation Yrotation Zrotation
						JOINT RightLowArm
						{
							OFFSET 4.905745 -2.335571 33.319862
							CHANNELS 3 Xrotation Yrotation Zrotation
							JOINT RightHand
							{
								OFFSET 20.880968 4.790237 21.023651
								CHANNELS 3 Xrotation Yrotation Zrotation
								End Site
								{
									OFFSET 4.563744 1.046967 4.594929
								}
							}
						}
					}
				}
			}
		}
	}
	JOINT LeftUpLeg
	{
		OFFSET 9.994703 -0.283005 0.667031
		CHANNELS 3 Xrotation Yrotation Zrotation
		JOINT LeftLowLeg
		{
			OFFSET 8.130733 -46.667721 0.061079
			CHANNELS 3 Xrotation Yrotation Zrotation
			JOINT LeftFoot
			{
				OFFSET 5.655338 -41.366379 -16.043911
				CHANNELS 3 Xrotation Yrotation Zrotation
				JOINT LeftToe
				{
					OFFSET 0.949087 -19.827925 12.865149
					CHANNELS 3 Xrotation Yrotation Zrotation
					End Site
					{
						OFFSET 0.680656 -7.153879 22.537027
					}
				}
			}
		}
	}
	JOINT RightUpLeg
	{
		OFFSET -9.994713 0.282806 -0.667045
		CHANNELS 3 Xrotation Yrotation Zrotation
		JOINT RightLowLeg
		{
			OFFSET -13.615885 -45.177155 4.200431
			CHANNELS 3 Xrotation Yrotation Zrotation
			JOINT RightFoot
			{
				OFFSET -11.135769 -41.841358 -11.219372
				CHANNELS 3 Xrotation Yrotation Zrotation
				JOINT RightToe
				{
					OFFSET -2.884275 -13.314917 19.337801
					CHANNELS 3 Xrotation Yrotation Zrotation
					End Site
					{
						OFFSET -1.522558 2.011628 23.520016
					}
				}
			}
		}
	}
}
MOTION
Frames: 14
Frame Time: 0.033333
37.463146 111.080566 -10.188203 -5.537313 -22.830911 -19.375932 15.947378 -0.034819 16.222381 4.691980 -6.912677 9.808747 -3.745365 5.337912 -7.908306 11.335729 -4.409045 3.150694 -0.000001 -0.000001 0.000002 4.643324 -8.166143 29.203249 -4.017224 -11.022222 33.465861 -11.759631 -1.146303 10.578486 -0.000001 0.000005 0.000001 -10.146966 -8.898346 -0.868016 -55.090909 -22.089202 -25.014497 12.091544 -19.865487 7.034308 0.000001 0.000004 -0.000003 4.569341 0.493828 4.230019 -6.838895 0.992442 -2.401041 13.163275 2.464526 11.056183 -0.000000 0.000003 -0.000000 -68.460653 40.083761 -35.783993 33.485416 11.033032 64.431708 -17.929120 22.387610 -35.204236 -0.000005 -0.000004 0.000001 
37.537323 111.086395 -10.294691 -5.663679 -22.377901 -19.418042 16.569984 0.048687 16.168904 3.977701 -7.061622 9.945843 -3.278120 5.321393 -8.047438 11.797805 -4.382694 3.217790 -0.000004 -0.000001 0.000001 4.699143 -8.312753 29.211377 -4.187118 -10.934405 33.285506 -11.945789 -1.579883 10.625546 -0.000002 -0.000001 -0.000001 -10.211782 -8.723022 -0.977928 -54.858512 -21.963716 -24.695703 12.531524 -20.002035 7.307666 -0.000006 0.000000 -0.000003 4.917816 0.491323 4.255400 -6.855440 0.879805 -2.466655 13.184172 2.283032 11.002355 -0.000000 -0.000001 -0.000000 -68.578924 39.847494 -35.308338 33.222853 10.991241 64.329679 -18.321866 22.281523 -34.933324 0.000004 -0.000001 0.000000 
37.616791 111.083733 -10.409162 -5.870904 -22.193593 -19.483753 16.524786 0.044938 16.264198 3.925196 -7.360891 10.433750 -3.093214 4.963760 -8.645798 11.853276 -4.068666 3.041099 -0.000001 0.000002 -0.000001 4.588127 -8.171089 28.994139 -3.809564 -11.386010 32.644438 -12.279773 -1.054612 11.592558 -0.000003 0.000002 0.000000 -10.178841 -8.498142 -1.251412 -54.856398 -22.233700 -24.880282 12.535069 -20.441045 7.544564 -0.000001 0.000004 -0.000000 4.974941 0.408247 4.255554 -6.771375 0.780712 -2.428651 13.157130 2.252377 10.930461 -0.000000 -0.000002 -0.000000 -67.895946 39.846402 -35.870637 32.778331 11.030552 64.877071 -18.337408 22.554960 -35.251877 -0.000002 -0.000006 0.000004 
37.685257 111.080681 -10.512779 -5.946586 -21.785628 -19.455365 16.670415 0.072156 16.272244 3.953050 -7.339802 10.383147 -3.234181 4.674042 -8.601502 12.121460 -4.093798 3.014994 0.000002 0.000003 -0.000001 4.621455 -8.199172 29.201733 -3.945949 -11.336559 32.675410 -12.024126 -1.217553 11.009967 -0.000004 0.000001 -0.000003 -10.117288 -8.226691 -1.334754 -54.635995 -22.236861 -24.616017 12.591683 -20.301387 7.446799 -0.000003 0.000001 -0.000001 5.222022 0.523612 4.153840 -6.612695 0.695980 -2.303981 12.772113 2.415793 10.571145 -0.000000 0.000001 -0.000000 -67.416911 39.832379 -36.340090 33.251024 11.338128 65.018770 -17.881200 22.743398 -35.508675 0.000000 -0.000000 0.000002 
37.751671 111.069618 -10.619221 -5.737237 -21.893601 -19.307495 16.286420 0.035676 16.186903 4.089195 -7.225760 10.205126 -3.361831 4.754120 -8.399151 12.199230 -4.086256 2.898093 -0.000001 0.000003 -0.000001 4.734710 -8.447575 28.949036 -3.944863 -11.256752 33.104892 -11.822584 -1.163874 10.890058 -0.000000 -0.000001 -0.000000 -10.229171 -8.256903 -1.418878 -54.825379 -22.596223 -24.763143 12.441751 -19.582291 7.150532 -0.000000 0.000001 -0.000002 4.842226 0.523457 4.087820 -6.698788 0.734860 -2.220905 12.786575 2.582497 10.590295 -0.000000 0.000001 0.000000 -67.732268 39.877189 -36.126547 33.389711 11.378988 65.105869 -17.673348 22.830619 -35.768714 0.000002 -0.000002 0.000001 
37.810249 111.066483 -10.721938 -5.787072 -21.513551 -19.293509 16.640422 0.067084 16.245672 3.661821 -7.362911 10.373748 -3.085882 4.980741 -8.655105 11.981304 -4.375762 3.227312 -0.000003 -0.000002 0.000003 4.935153 -8.578482 28.870899 -3.901854 -11.138053 33.335718 -11.876947 -0.935707 11.141047 -0.000003 0.000000 0.000003 -10.544907 -8.898454 -1.478367 -54.894039 -22.778643 -24.952734 12.311962 -19.233531 7.111868 -0.000003 -0.000001 -0.000002 4.996271 0.536776 4.002957 -6.681306 0.720082 -2.025172 12.315732 2.075296 10.145376 -0.000000 -0.000000 0.000000 -67.429943 39.720169 -36.209732 33.377403 11.286050 65.055045 -17.534243 22.572624 -35.521550 -0.000001 -0.000005 0.000001 
37.867729 111.062592 -10.824247 -5.447416 -21.382088 -19.142532 16.386319 0.052278 16.226450 3.620507 -7.297091 10.231192 -3.091849 5.181535 -8.472474 12.068003 -4.659504 3.385060 -0.000001 -0.000000 -0.000000 4.590912 -8.326284 29.187041 -4.046176 -11.757029 33.017486 -11.902557 -1.397400 10.524478 -0.000002 0.000001 -0.000002 -10.671043 -8.724486 -1.516124 -55.046769 -23.025437 -24.734191 12.531307 -19.384026 7.361801 0.000001 0.000004 -0.000003 4.719685 0.537634 3.962798 -6.787126 0.797336 -1.865823 12.355551 2.027637 10.208712 -0.000002 0.000000 -0.000000 -67.149796 39.820641 -36.662301 33.059584 11.167098 65.485026 -17.844767 22.546504 -35.298305 0.000001 -0.000005 0.000001 
37.912750 111.039505 -10.915416 -5.457286 -21.443051 -19.353686 15.637460 -0.127572 16.680405 4.725536 -7.003475 9.884382 -3.481628 4.761320 -8.467730 12.383345 -4.533074 3.236900 -0.000001 -0.000001 0.000000 5.420171 -8.305381 28.858222 -3.530142 -10.820889 33.383967 -11.284621 -1.115735 11.723650 -0.000004 0.000002 0.000003 -9.820049 -8.522037 -1.516278 -55.752423 -22.919741 -26.178215 11.115706 -21.061816 7.256264 -0.000003 0.000001 -0.000001 3.757836 0.545548 4.517388 -6.852734 0.767790 -2.182109 14.665280 3.486751 12.405320 -0.000002 -0.000001 0.000000 -66.697043 39.686678 -36.980645 32.719816 10.977958 65.641410 -18.439440 21.637250 -34.394350 0.000002 0.000000 -0.000004 
37.955353 111.030861 -11.014627 -5.062923 -21.671770 -19.303660 15.709853 -0.061383 16.336552 4.011709 -7.239551 10.216481 -2.982067 5.211346 -8.531935 11.634532 -4.593846 3.310118 -0.000000 0.000001 -0.000002 5.234825 -8.386672 29.035916 -3.895239 -10.369632 33.803084 -11.536203 -1.085601 11.504847 -0.000002 0.000002 0.000002 -10.236110 -8.919513 -1.508273 -55.414469 -22.672060 -25.784828 11.220859 -20.790430 7.333408 -0.000001 0.000001 0.000003 3.554438 0.410359 4.522685 -6.744411 0.790182 -2.105476 14.087064 2.665909 11.765271 -0.000002 0.000001 0.000000 -67.507636 39.877168 -36.388642 32.753598 11.072001 65.947020 -18.123883 21.982817 -34.976572 -0.000004 -0.000004 0.000003 
37.993866 111.020706 -11.125197 -5.327942 -21.707347 -19.254705 15.981060 -0.003937 16.004421 3.717484 -7.287192 10.305103 -2.968018 5.288519 -8.356558 11.441918 -4.299688 3.127536 0.000002 -0.000002 -0.000001 5.035954 -8.249050 28.983184 -3.817586 -10.461713 33.761243 -11.789269 -0.787301 11.535725 -0.000004 -0.000001 -0.000002 -10.215561 -8.870788 -1.460930 -55.244599 -22.164695 -25.633338 11.453226 -21.063277 7.512190 0.000001 -0.000000 -0.000000 3.923712 0.374058 4.278004 -6.844025 0.718266 -1.940290 13.685628 2.530742 11.450184 -0.000004 -0.000000 0.000000 -68.157023 39.718277 -35.511912 33.480997 11.368211 65.528493 -17.508468 22.127149 -35.098887 0.000003 0.000000 -0.000001 
38.037510 111.022079 -11.233618 -5.250023 -21.640245 -19.213903 16.098913 0.028218 16.100368 3.696720 -7.127685 10.018991 -3.221604 5.293574 -8.034457 11.537284 -4.204074 2.946305 -0.000003 0.000002 -0.000001 4.712676 -8.214132 28.865650 -3.870556 -10.943123 33.576865 -12.068511 -0.677364 11.551649 -0.000003 0.000003 0.000003 -10.323602 -8.802622 -1.396793 -55.285091 -22.220762 -25.323227 11.605038 -20.881659 7.524195 -0.000002 -0.000000 -0.000000 4.226961 0.459197 4.083100 -7.280575 0.603424 -1.732271 13.353144 1.886664 10.955971 -0.000002 0.000002 -0.000001 -67.748865 39.721723 -35.950902 33.569891 11.570271 65.814439 -17.195285 22.276998 -35.287841 -0.000001 -0.000002 0.000002 
38.071236 111.016022 -11.338466 -4.606491 -21.890606 -19.285370 15.226906 -0.082289 16.567594 4.200656 -6.826999 9.609029 -3.440765 5.047094 -7.925879 11.321628 -4.252248 2.952510 -0.000001 0.000001 0.000000 4.368701 -7.841962 29.075337 -3.837889 -11.241411 33.353736 -12.283915 -0.494013 11.849472 -0.000003 0.000004 0.000003 -10.589660 -9.286856 -1.331545 -55.320277 -22.330723 -25.272520 11.536411 -20.668853 7.549948 0.000000 0.000000 -0.000005 3.908187 0.451058 4.339882 -7.659609 0.570388 -1.704634 13.567354 1.971228 11.155412 -0.000002 0.000001 -0.000000 -67.307375 40.005917 -36.761379 32.741950 11.456713 66.856890 -17.554848 22.781604 -35.786353 0.000001 -0.000001 0.000000 
38.097694 111.016876 -11.444404 -4.808944 -22.143292 -19.185960 15.461289 -0.036369 16.059853 3.591196 -7.182535 10.030177 -2.892271 5.663099 -8.151673 11.426780 -4.432580 3.194604 0.000001 0.000000 0.000001 4.202382 -7.831023 29.083745 -4.022921 -11.336386 33.413729 -12.493055 -0.602772 11.742297 -0.000002 0.000000 0.000003 -10.726523 -9.312285 -1.292464 -55.350323 -22.347698 -25.042581 11.907902 -20.544200 7.572002 -0.000000 0.000001 -0.000002 3.902265 0.457682 4.184453 -7.376734 0.586520 -1.798543 13.594486 2.035419 11.148913 -0.000002 0.000000 0.000000 -67.899744 39.865096 -36.034152 33.361612 11.705026 66.473389 -16.881234 22.584943 -35.497258 0.000001 0.000001 -0.000001 
38.121132 111.012505 -11.547227 -4.848067 -22.051344 -19.171390 15.369558 -0.049403 15.909447 3.666320 -7.100458 9.940449 -2.999269 5.653371 -7.955405 11.550226 -4.643552 3.496731 -0.000002 0.000001 -0.000000 4.414374 -8.081600 29.072837 -3.992268 -11.461409 33.271429 -12.576659 -0.551025 11.769808 -0.000002 -0.000003 -0.000000 -10.827387 -9.549027 -1.280322 -54.995102 -22.423262 -24.799800 11.556808 -20.625132 7.707575 -0.000004 0.000002 0.000000 4.066750 0.491547 4.146673 -7.438421 0.589742 -1.786317 13.448955 2.183560 11.049939 0.000001 -0.000001 -0.000001 -68.106569 39.743143 -35.675526 32.750651 11.461926 66.590601 -17.509127 22.629588 -35.401376 -0.000001 0.000001 -0.000000 
